<?xml version="1.0" encoding="UTF-8" standalone="no"?>
<!-- Created with Inkscape (http://www.inkscape.org/) -->

<svg
   version="1.1"
   id="svg2"
   width="902.66669"
   height="195.57733"
   viewBox="0 0 902.66669 195.57733"
   sodipodi:docname="trackobox_logo.ai"
   xmlns:inkscape="http://www.inkscape.org/namespaces/inkscape"
   xmlns:sodipodi="http://sodipodi.sourceforge.net/DTD/sodipodi-0.dtd"
   xmlns="http://www.w3.org/2000/svg"
   xmlns:svg="http://www.w3.org/2000/svg">
  <defs
     id="defs6">
    <clipPath
       clipPathUnits="userSpaceOnUse"
       id="clipPath16">
      <path
         d="M 0,146.683 H 677 V 0 H 0 Z"
         id="path14" />
    </clipPath>
    <clipPath
       clipPathUnits="userSpaceOnUse"
       id="clipPath32">
      <path
         d="M 0,146.683 H 677 V 0 H 0 Z"
         id="path30" />
    </clipPath>
  </defs>
  <sodipodi:namedview
     id="namedview4"
     pagecolor="#ffffff"
     bordercolor="#000000"
     borderopacity="0.25"
     inkscape:showpageshadow="2"
     inkscape:pageopacity="0.0"
     inkscape:pagecheckerboard="0"
     inkscape:deskcolor="#d1d1d1" />
  <g
     id="g8"
     inkscape:groupmode="layer"
     inkscape:label="trackobox_logo"
     transform="matrix(1.3333333,0,0,-1.3333333,0,195.57733)">
    <g
       id="g10">
      <g
         id="g12"
         clip-path="url(#clipPath16)">
        <g
           id="g18"
           transform="translate(117.8224,71.6762)">
          <path
             d="m 0,0 c 0,-31.901 -25.861,-57.761 -57.761,-57.761 -31.901,0 -57.762,25.86 -57.762,57.761 0,31.901 25.861,57.761 57.762,57.761 C -25.861,57.761 0,31.901 0,0"
             style="fill:#702f8e;fill-opacity:1;fill-rule:nonzero;stroke:none"
             id="path20" />
        </g>
      </g>
    </g>
    <text
       xml:space="preserve"
       transform="matrix(1,0,0,-1,147.0029,26.3125)"
       style="font-variant:normal;font-weight:bold;font-stretch:normal;font-size:25.3286px;font-family:'Plus Jakarta Display';-inkscape-font-specification:PlusJakartaDisplay-Bold;writing-mode:lr-tb;fill:#000000;fill-opacity:1;fill-rule:nonzero;stroke:none"
       id="text24"><tspan
         x="0 6.9653649 22.770411 36.979755 51.163773 67.728676 81.55809 94.551666 109.16627 125.73117 130.29031 145.23419 151.56635 166.18094 180.79555 190.97765 195.53679 218.33253 232.16194 247.10582 260.93524 277.24686 291.86145 314.55588 329.17047 344.11435 354.29645 358.85559 375.2179 389.85782 402.85138 413.03348 427.64807"
         y="0"
         sodipodi:role="line"
         id="tspan22">IoT-based Fleet Management System</tspan></text>
    <g
       id="g26">
      <g
         id="g28"
         clip-path="url(#clipPath32)">
        <g
           id="g34"
           transform="translate(193.8493,123.1183)">
          <path
             d="m 0,0 c 0.975,0 1.464,-0.516 1.464,-1.55 v -9.817 c 0,-0.977 -0.489,-1.464 -1.464,-1.464 h -15.759 v -47.192 c 0,-1.033 -0.489,-1.55 -1.464,-1.55 h -10.851 c -0.977,0 -1.464,0.517 -1.464,1.55 v 47.192 h -15.759 c -1.033,0 -1.55,0.487 -1.55,1.464 v 9.817 c 0,1.034 0.517,1.55 1.55,1.55 z"
             style="fill:#702f8e;fill-opacity:1;fill-rule:nonzero;stroke:none"
             id="path36" />
        </g>
        <g
           id="g38"
           transform="translate(196.1744,61.5454)">
          <path
             d="m 0,0 c -1.033,0 -1.55,0.517 -1.55,1.55 v 39.097 c 0,0.803 0.373,1.406 1.12,1.808 4.822,2.354 10.104,3.531 15.845,3.531 2.123,0 4.909,-0.288 8.353,-0.861 0.918,-0.172 1.378,-0.719 1.378,-1.636 v -7.923 c 0,-0.517 -0.144,-0.891 -0.43,-1.119 -0.288,-0.231 -0.689,-0.317 -1.206,-0.259 -1.55,0.229 -3.33,0.345 -5.339,0.345 -2.584,0 -4.766,-0.375 -6.545,-1.12 V 1.55 C 11.626,0.517 11.137,0 10.162,0 Z"
             style="fill:#702f8e;fill-opacity:1;fill-rule:nonzero;stroke:none"
             id="path40" />
        </g>
        <g
           id="g42"
           transform="translate(238.6732,72.2238)">
          <path
             d="m 0,0 c 1.234,-0.747 2.913,-1.12 5.038,-1.12 1.837,0 3.789,0.229 5.856,0.69 V 7.148 C 9.172,7.492 7.191,7.664 4.952,7.664 0.416,7.664 -1.851,6.229 -1.851,3.359 -1.851,1.865 -1.235,0.745 0,0 m -4.65,33.973 c 3.07,0.889 6.358,1.334 9.86,1.334 6.085,0 10.75,-1.607 13.994,-4.822 3.243,-3.216 4.865,-8.038 4.865,-14.468 V -7.578 c 0,-0.861 -0.43,-1.436 -1.291,-1.723 -2.527,-0.746 -5.382,-1.349 -8.569,-1.808 -3.186,-0.459 -6.243,-0.689 -9.171,-0.689 -6.373,0 -11.339,1.234 -14.898,3.703 -3.561,2.468 -5.34,6.171 -5.34,11.109 0,4.42 1.637,7.764 4.909,10.033 3.273,2.267 7.893,3.401 13.865,3.401 2.009,0 4.448,-0.172 7.32,-0.517 v 0.862 c 0,2.411 -0.532,4.19 -1.593,5.339 -1.063,1.148 -2.943,1.722 -5.641,1.722 -1.895,0 -3.847,-0.23 -5.856,-0.689 -2.01,-0.46 -3.646,-1.033 -4.908,-1.722 -0.289,-0.172 -0.575,-0.258 -0.862,-0.258 -0.517,0 -0.919,0.258 -1.205,0.775 l -3.531,6.717 c -0.23,0.573 -0.345,0.917 -0.345,1.033 0,0.344 0.173,0.631 0.517,0.861 2.181,1.378 4.808,2.511 7.88,3.402"
             style="fill:#702f8e;fill-opacity:1;fill-rule:nonzero;stroke:none"
             id="path44" />
        </g>
        <g
           id="g46"
           transform="translate(290.816,60.4259)">
          <path
             d="m 0,0 c -6.43,0 -11.44,1.679 -15.027,5.038 -3.589,3.358 -5.383,7.936 -5.383,13.735 v 9.731 c 0,5.741 1.794,10.276 5.383,13.607 3.587,3.329 8.568,4.994 14.941,4.994 4.995,0 9.701,-1.349 14.123,-4.047 0.459,-0.288 0.689,-0.689 0.689,-1.206 0,-0.287 -0.087,-0.602 -0.259,-0.947 L 9.903,34.016 C 9.559,33.499 9.157,33.241 8.698,33.241 c -0.288,0 -0.603,0.086 -0.948,0.258 -2.469,1.32 -4.88,1.981 -7.234,1.981 -2.354,0 -4.205,-0.618 -5.554,-1.852 -1.35,-1.235 -2.024,-2.942 -2.024,-5.124 v -9.731 c 0,-2.354 0.674,-4.133 2.024,-5.339 1.349,-1.206 3.172,-1.808 5.468,-1.808 2.871,0 5.626,0.831 8.268,2.497 0.344,0.172 0.659,0.258 0.947,0.258 0.516,0 0.918,-0.23 1.205,-0.689 L 15.501,6.803 C 15.73,6.515 15.845,6.2 15.845,5.856 15.845,5.339 15.643,4.965 15.243,4.736 10.765,1.578 5.684,0 0,0"
             style="fill:#702f8e;fill-opacity:1;fill-rule:nonzero;stroke:none"
             id="path48" />
        </g>
        <g
           id="g50"
           transform="translate(339.9014,61.5454)">
          <path
             d="m 0,0 c -0.919,0 -1.522,0.345 -1.809,1.034 l -10.075,15.5 -2.411,-2.583 V 1.55 c 0,-1.033 -0.517,-1.55 -1.55,-1.55 h -9.99 c -1.033,0 -1.55,0.517 -1.55,1.55 v 58.473 c 0,1.033 0.517,1.55 1.55,1.55 h 9.99 c 1.033,0 1.55,-0.517 1.55,-1.55 V 29.624 l 10.936,14.209 c 0.401,0.631 1.004,0.947 1.809,0.947 h 11.97 c 0.803,0 1.206,-0.288 1.206,-0.861 0,-0.344 -0.144,-0.661 -0.431,-0.947 L -3.359,25.921 13.09,1.809 C 13.318,1.52 13.434,1.206 13.434,0.861 13.434,0.631 13.318,0.43 13.09,0.258 12.86,0.086 12.543,0 12.142,0 Z"
             style="fill:#702f8e;fill-opacity:1;fill-rule:nonzero;stroke:none"
             id="path52" />
        </g>
        <g
           id="g54"
           transform="translate(367.8896,78.6824)">
          <path
             d="m 0,0 c 0,-2.124 0.603,-3.761 1.809,-4.909 1.205,-1.149 2.956,-1.722 5.253,-1.722 2.295,0 4.047,0.573 5.253,1.722 1.205,1.148 1.808,2.785 1.808,4.909 v 10.334 c 0,2.181 -0.603,3.86 -1.808,5.038 -1.206,1.176 -2.958,1.765 -5.253,1.765 -2.297,0 -4.048,-0.589 -5.253,-1.765 C 0.603,14.194 0,12.515 0,10.334 Z m 27.471,0 c 0,-5.684 -1.823,-10.148 -5.468,-13.391 -3.647,-3.244 -8.627,-4.866 -14.941,-4.866 -6.317,0 -11.311,1.622 -14.985,4.866 -3.674,3.243 -5.511,7.707 -5.511,13.391 v 10.334 c 0,5.74 1.837,10.261 5.511,13.563 3.674,3.301 8.668,4.952 14.985,4.952 6.314,0 11.294,-1.651 14.941,-4.952 3.645,-3.302 5.468,-7.823 5.468,-13.563 z"
             style="fill:#702f8e;fill-opacity:1;fill-rule:nonzero;stroke:none"
             id="path56" />
        </g>
        <g
           id="g58"
           transform="translate(429.9787,79.716)">
          <path
             d="m 0,0 v 8.956 c 0,4.937 -2.411,7.406 -7.234,7.406 -2.182,0 -4.191,-0.488 -6.028,-1.464 V -6.631 c 1.723,-0.632 3.703,-0.947 5.942,-0.947 C -2.441,-7.578 0,-5.053 0,0 m -13.262,26.351 c 2.698,0.976 5.368,1.464 8.009,1.464 3.673,0 6.918,-0.775 9.731,-2.325 2.812,-1.55 4.995,-3.761 6.545,-6.63 1.55,-2.872 2.325,-6.231 2.325,-10.076 V 0.258 c 0,-4.019 -0.861,-7.507 -2.583,-10.463 -1.723,-2.957 -4.121,-5.21 -7.191,-6.76 -3.072,-1.55 -6.618,-2.325 -10.635,-2.325 -2.928,0 -6.029,0.273 -9.301,0.818 -3.272,0.545 -6.23,1.305 -8.87,2.282 -0.805,0.344 -1.206,0.948 -1.206,1.809 v 56.233 c 0,1.034 0.517,1.55 1.551,1.55 h 10.161 c 0.976,0 1.464,-0.516 1.464,-1.55 z"
             style="fill:#f16522;fill-opacity:1;fill-rule:nonzero;stroke:none"
             id="path60" />
        </g>
        <g
           id="g62"
           transform="translate(463.5639,78.6824)">
          <path
             d="m 0,0 c 0,-2.124 0.603,-3.761 1.809,-4.909 1.205,-1.149 2.956,-1.722 5.253,-1.722 2.295,0 4.047,0.573 5.253,1.722 1.205,1.148 1.808,2.785 1.808,4.909 v 10.334 c 0,2.181 -0.603,3.86 -1.808,5.038 -1.206,1.176 -2.958,1.765 -5.253,1.765 -2.297,0 -4.048,-0.589 -5.253,-1.765 C 0.603,14.194 0,12.515 0,10.334 Z m 27.471,0 c 0,-5.684 -1.823,-10.148 -5.468,-13.391 -3.647,-3.244 -8.627,-4.866 -14.941,-4.866 -6.317,0 -11.311,1.622 -14.985,4.866 -3.674,3.243 -5.511,7.707 -5.511,13.391 v 10.334 c 0,5.74 1.837,10.261 5.511,13.563 3.674,3.301 8.668,4.952 14.985,4.952 6.314,0 11.294,-1.651 14.941,-4.952 3.645,-3.302 5.468,-7.823 5.468,-13.563 z"
             style="fill:#f16522;fill-opacity:1;fill-rule:nonzero;stroke:none"
             id="path64" />
        </g>
        <g
           id="g66"
           transform="translate(536.074,63.354)">
          <path
             d="m 0,0 c 0.172,-0.23 0.258,-0.489 0.258,-0.775 0,-0.288 -0.115,-0.532 -0.344,-0.732 -0.23,-0.202 -0.546,-0.302 -0.947,-0.302 h -11.97 c -0.805,0 -1.378,0.373 -1.723,1.12 l -6.286,12.315 -6.201,-12.315 c -0.344,-0.747 -0.947,-1.12 -1.808,-1.12 h -11.97 c -0.402,0 -0.719,0.1 -0.948,0.302 -0.23,0.2 -0.344,0.444 -0.344,0.732 0,0.286 0.086,0.545 0.258,0.775 l 12.487,20.754 -11.798,20.409 c -0.172,0.287 -0.258,0.545 -0.258,0.775 0,0.287 0.114,0.531 0.344,0.733 0.229,0.2 0.545,0.301 0.948,0.301 h 11.625 c 0.862,0 1.464,-0.374 1.809,-1.12 l 5.856,-12.745 5.856,12.745 c 0.344,0.746 0.947,1.12 1.808,1.12 h 11.626 c 0.861,0 1.292,-0.316 1.292,-0.947 0,-0.231 -0.087,-0.517 -0.259,-0.862 L -12.487,20.754 Z"
             style="fill:#f16522;fill-opacity:1;fill-rule:nonzero;stroke:none"
             id="path68" />
        </g>
        <g
           id="g70"
           transform="translate(24.7801,99.8391)">
          <path
             d="M 0,0 C -0.001,0.841 0.681,1.523 1.522,1.523 H 8.949 V 1.512 h 5.724 c 4.271,0 8.544,0.002 12.815,-0.004 l 0.028,0.015 h 5.697 c 1.14,0 1.509,-1.532 0.495,-2.051 L 6.512,-14.429 2.1,-16.974 c -0.934,-0.538 -2.101,0.137 -2.101,1.215 L 0,-12.384 v 12.372 z"
             style="fill:#ffffff;fill-opacity:1;fill-rule:nonzero;stroke:none"
             id="path72" />
        </g>
        <g
           id="g74"
           transform="translate(69.5424,99.6186)">
          <path
             d="m 0,0 c -1.311,-2.835 -2.612,-5.675 -3.922,-8.511 -1.366,-2.962 -2.735,-5.921 -4.104,-8.882 -0.016,-0.035 -0.035,-0.072 -0.05,-0.107 -0.006,-0.013 -0.014,-0.028 -0.02,-0.041 -0.778,-1.682 -1.555,-3.363 -2.333,-5.046 -1.924,-4.167 -3.847,-8.337 -5.773,-12.506 -0.13,-0.281 -0.264,-0.561 -0.412,-0.833 -0.271,-0.499 -0.7,-0.703 -1.248,-0.572 -0.073,0.017 -0.141,0.039 -0.205,0.063 -0.41,0.163 -0.624,0.493 -0.652,0.999 -0.117,2.11 -0.083,4.221 -0.108,6.331 -0.041,3.603 -0.068,7.206 -0.068,10.808 0,0.045 -0.001,0.087 -0.004,0.126 -0.012,0.203 -0.053,0.344 -0.138,0.438 -0.005,0.006 -0.011,0.012 -0.017,0.019 -0.026,0.025 -0.055,0.046 -0.089,0.064 -0.002,10e-4 -0.003,10e-4 -0.003,10e-4 h -16.2 c -1.12,0 -1.484,1.504 -0.489,2.016 l 0.602,0.311 24.818,12.785 c 1.898,0.914 3.8,1.822 5.709,2.714 0.433,0.204 0.866,0.406 1.3,0.608 0.618,0.286 1.247,0.545 1.881,0.802 0.462,0.189 0.928,0.26 1.319,-0.154 C 0.195,1.007 0.245,0.529 0,0"
             style="fill:#f16522;fill-opacity:1;fill-rule:nonzero;stroke:none"
             id="path76" />
        </g>
        <g
           id="g78"
           transform="translate(61.4465,82.0771)">
          <path
             d="m 0,0 c -0.778,-1.681 -1.556,-3.362 -2.333,-5.046 -1.924,-4.167 -3.847,-8.337 -5.773,-12.505 -0.13,-0.282 -0.264,-0.562 -0.413,-0.833 -0.27,-0.5 -0.699,-0.703 -1.247,-0.573 -0.073,0.017 -0.141,0.039 -0.205,0.063 -0.41,0.164 -0.625,0.494 -0.653,0.999 0,0 -0.175,16.56 -0.175,17.14 0,0.045 -0.001,0.086 -0.004,0.125 -0.015,0.201 -0.064,0.326 -0.113,0.403 -0.009,0.012 -0.016,0.025 -0.025,0.036 -0.007,0.007 -0.013,0.014 -0.018,0.018 -0.042,0.046 -0.078,0.061 -0.088,0.065 -0.002,0.001 -0.003,0.001 -0.003,0.001 z"
             style="fill:#ee4823;fill-opacity:1;fill-rule:nonzero;stroke:none"
             id="path80" />
        </g>
        <g
           id="g82"
           transform="translate(95.3432,99.3521)">
          <path
             d="m 0,0 v -15.275 c 0,-1.111 -0.9,-2.011 -2.01,-2.011 h -12.629 v 0.015 h -9.857 c -0.234,0 -0.469,0.005 -0.702,-0.018 -0.343,-0.034 -0.444,-0.143 -0.465,-0.478 -0.013,-0.193 -0.007,-0.388 -0.007,-0.583 v -36.17 c 0,-0.33 -0.003,-0.659 -0.096,-0.983 -0.306,-1.06 -1.2,-1.787 -2.299,-1.849 -0.194,-0.011 -0.39,-0.01 -0.585,-0.01 h -13.271 c -0.155,0 -0.313,0.006 -0.467,0.003 -1.137,-0.027 -2.434,0.869 -2.521,2.487 -0.008,0.156 -0.002,0.312 -0.002,0.468 -10e-4,1.675 0.011,3.35 -0.006,5.025 v 0.058 c 0,2.635 0.582,5.238 1.705,7.624 L -22.639,2.01 h 2.628 c 0.461,-0.005 0.92,-0.006 1.38,-0.006 0.437,10e-4 0.874,10e-4 1.31,10e-4 0.894,0 1.788,0 2.682,-10e-4 V 2.01 H -2.01 C -0.9,2.01 0,1.11 0,0"
             style="fill:#ffffff;fill-opacity:1;fill-rule:nonzero;stroke:none"
             id="path84" />
        </g>
      </g>
    </g>
  </g>
</svg>
