<?xml version="1.0" encoding="UTF-8" standalone="no"?>
<!-- Created with Inkscape (http://www.inkscape.org/) -->

<svg
   version="1.1"
   id="svg2"
   width="811.87067"
   height="195.57733"
   viewBox="0 0 811.87067 195.57733"
   sodipodi:docname="salesmatic_logo.ai"
   xmlns:inkscape="http://www.inkscape.org/namespaces/inkscape"
   xmlns:sodipodi="http://sodipodi.sourceforge.net/DTD/sodipodi-0.dtd"
   xmlns="http://www.w3.org/2000/svg"
   xmlns:svg="http://www.w3.org/2000/svg">
  <defs
     id="defs6">
    <clipPath
       clipPathUnits="userSpaceOnUse"
       id="clipPath16">
      <path
         d="M 0,146.683 H 608.903 V 0 H 0 Z"
         id="path14" />
    </clipPath>
    <clipPath
       clipPathUnits="userSpaceOnUse"
       id="clipPath72">
      <path
         d="M 0,146.683 H 608.903 V 0 H 0 Z"
         id="path70" />
    </clipPath>
  </defs>
  <sodipodi:namedview
     id="namedview4"
     pagecolor="#ffffff"
     bordercolor="#000000"
     borderopacity="0.25"
     inkscape:showpageshadow="2"
     inkscape:pageopacity="0.0"
     inkscape:pagecheckerboard="0"
     inkscape:deskcolor="#d1d1d1" />
  <g
     id="g8"
     inkscape:groupmode="layer"
     inkscape:label="salesmatic_logo"
     transform="matrix(1.3333333,0,0,-1.3333333,0,195.57733)">
    <g
       id="g10">
      <g
         id="g12"
         clip-path="url(#clipPath16)">
        <g
           id="g18"
           transform="translate(118.4102,73.4551)">
          <path
             d="m 0,0 c 0,-31.901 -25.861,-57.761 -57.761,-57.761 -31.901,0 -57.762,25.86 -57.762,57.761 0,31.901 25.861,57.761 57.762,57.761 C -25.861,57.761 0,31.901 0,0"
             style="fill:#702f8e;fill-opacity:1;fill-rule:nonzero;stroke:none"
             id="path20" />
        </g>
        <g
           id="g22"
           transform="translate(191.5477,70.1721)">
          <path
             d="m 0,0 c -1.982,-2.858 -4.811,-5.051 -8.489,-6.579 -3.679,-1.528 -7.979,-2.292 -12.903,-2.292 -4.301,0 -8.178,0.652 -11.63,1.953 -3.452,1.301 -7.017,3.423 -10.696,6.366 -0.453,0.34 -0.679,0.707 -0.679,1.104 0,0.169 0.113,0.48 0.34,0.934 l 5.772,8.234 c 0.226,0.395 0.595,0.594 1.104,0.594 0.34,0 0.65,-0.114 0.934,-0.34 5.488,-3.849 10.751,-5.801 15.789,-5.857 2.829,0 5.106,0.48 6.833,1.443 1.726,0.962 2.59,2.348 2.59,4.16 0,1.98 -0.921,3.438 -2.759,4.371 -1.84,0.934 -4.571,1.769 -8.192,2.505 -5.886,1.244 -10.908,3.324 -15.068,6.239 -4.159,2.914 -6.239,7.428 -6.239,13.54 0,5.658 2.135,10.002 6.409,13.03 4.272,3.027 9.805,4.541 16.596,4.541 3.735,0 7.215,-0.509 10.441,-1.527 3.226,-1.019 6.592,-2.689 10.102,-5.009 0.509,-0.339 0.764,-0.708 0.764,-1.103 0,-0.34 -0.114,-0.652 -0.34,-0.934 l -5.433,-8.149 c -0.284,-0.454 -0.679,-0.68 -1.188,-0.68 -0.284,0 -0.594,0.085 -0.934,0.255 -4.471,2.829 -9.168,4.245 -14.091,4.245 -5.603,0 -8.404,-1.698 -8.404,-5.094 0,-1.755 0.777,-3.028 2.334,-3.82 1.556,-0.793 4.372,-1.67 8.446,-2.631 4.584,-1.133 8.39,-2.392 11.418,-3.778 3.027,-1.387 5.475,-3.34 7.343,-5.857 1.867,-2.519 2.801,-5.759 2.801,-9.72 C 2.971,6.239 1.98,2.857 0,0"
             style="fill:#702f8e;fill-opacity:1;fill-rule:nonzero;stroke:none"
             id="path24" />
        </g>
        <g
           id="g26"
           transform="translate(214.0847,72.8461)">
          <path
             d="m 0,0 c 1.216,-0.736 2.872,-1.104 4.966,-1.104 1.811,0 3.735,0.226 5.772,0.68 v 7.47 C 9.041,7.385 7.088,7.555 4.881,7.555 0.41,7.555 -1.825,6.14 -1.825,3.311 -1.825,1.838 -1.218,0.735 0,0 m -4.584,33.489 c 3.027,0.876 6.267,1.315 9.72,1.315 5.998,0 10.596,-1.585 13.794,-4.753 3.197,-3.171 4.796,-7.924 4.796,-14.262 V -7.47 c 0,-0.849 -0.424,-1.416 -1.273,-1.698 -2.491,-0.736 -5.305,-1.33 -8.446,-1.783 -3.141,-0.452 -6.155,-0.679 -9.041,-0.679 -6.282,0 -11.177,1.217 -14.686,3.651 -3.509,2.432 -5.263,6.082 -5.263,10.95 0,4.357 1.613,7.653 4.839,9.89 3.226,2.235 7.781,3.353 13.667,3.353 1.98,0 4.385,-0.17 7.215,-0.51 v 0.849 c 0,2.377 -0.523,4.131 -1.57,5.263 -1.048,1.132 -2.901,1.698 -5.56,1.698 -1.868,0 -3.792,-0.227 -5.773,-0.679 -1.981,-0.454 -3.594,-1.019 -4.838,-1.698 -0.284,-0.17 -0.567,-0.254 -0.849,-0.254 -0.509,0 -0.906,0.254 -1.188,0.763 l -3.481,6.622 c -0.227,0.565 -0.34,0.905 -0.34,1.018 0,0.34 0.17,0.622 0.51,0.849 2.15,1.358 4.739,2.475 7.767,3.354"
             style="fill:#702f8e;fill-opacity:1;fill-rule:nonzero;stroke:none"
             id="path28" />
        </g>
        <g
           id="g30"
           transform="translate(262.0886,61.2163)">
          <path
             d="m 0,0 c -4.981,0 -8.843,1.443 -11.587,4.329 -2.746,2.886 -4.117,6.932 -4.117,12.139 v 43.803 c 0,1.019 0.509,1.528 1.528,1.528 H -4.16 c 0.962,0 1.443,-0.509 1.443,-1.528 v -42.19 c 0,-4.131 1.669,-6.197 5.009,-6.197 1.188,0 2.065,0.028 2.631,0.085 h 0.255 c 0.905,0 1.358,-0.481 1.358,-1.443 V 2.037 C 6.536,1.641 6.452,1.301 6.282,1.019 6.112,0.736 5.885,0.566 5.603,0.509 3.678,0.17 1.81,0 0,0"
             style="fill:#702f8e;fill-opacity:1;fill-rule:nonzero;stroke:none"
             id="path32" />
        </g>
        <g
           id="g34"
           transform="translate(298.8443,90.1634)">
          <path
             d="m 0,0 c 0,2.207 -0.594,3.876 -1.782,5.008 -1.189,1.132 -2.774,1.698 -4.754,1.698 -2.038,0 -3.637,-0.552 -4.796,-1.655 C -12.493,3.947 -13.073,2.263 -13.073,0 V -1.783 H 0 Z m 12.478,-8.744 c 0,-0.963 -0.509,-1.443 -1.527,-1.443 h -24.024 v -1.358 c 0,-2.151 0.65,-3.778 1.953,-4.881 1.301,-1.104 3.084,-1.655 5.348,-1.655 3.678,0 7.271,1.018 10.78,3.056 0.283,0.225 0.565,0.339 0.85,0.339 0.395,0 0.763,-0.227 1.103,-0.679 l 4.414,-5.857 c 0.226,-0.284 0.34,-0.624 0.34,-1.019 0,-0.396 -0.199,-0.764 -0.594,-1.103 -4.868,-3.736 -10.641,-5.603 -17.318,-5.603 -3.792,0 -7.187,0.666 -10.186,1.995 -3,1.329 -5.377,3.324 -7.131,5.984 -1.755,2.66 -2.631,5.885 -2.631,9.678 v 10.696 c 0,5.998 1.838,10.511 5.517,13.539 3.678,3.027 8.404,4.542 14.177,4.542 5.602,0 10.157,-1.5 13.667,-4.499 3.508,-3 5.262,-7.527 5.262,-13.582 z"
             style="fill:#702f8e;fill-opacity:1;fill-rule:nonzero;stroke:none"
             id="path36" />
        </g>
        <g
           id="g38"
           transform="translate(349.1404,64.9514)">
          <path
             d="m 0,0 c -3.311,-2.491 -8.051,-3.735 -14.219,-3.735 -3.056,0 -6.112,0.467 -9.168,1.401 -3.056,0.933 -5.886,2.305 -8.489,4.117 -0.509,0.339 -0.764,0.735 -0.764,1.188 0,0.17 0.113,0.48 0.34,0.934 l 3.99,6.791 c 0.339,0.565 0.734,0.849 1.188,0.849 0.283,0 0.565,-0.114 0.849,-0.34 3.735,-2.546 7.781,-3.82 12.139,-3.82 1.811,0 3.268,0.297 4.372,0.892 1.103,0.594 1.655,1.428 1.655,2.504 0,1.019 -0.524,1.782 -1.57,2.292 -1.048,0.509 -2.561,0.934 -4.542,1.273 -11.205,1.868 -16.808,6.649 -16.808,14.346 0,4.584 1.641,8.065 4.924,10.442 3.281,2.377 7.78,3.565 13.497,3.565 5.036,0 10.045,-1.303 15.025,-3.905 0.51,-0.227 0.764,-0.594 0.764,-1.104 0,-0.283 -0.085,-0.594 -0.254,-0.933 l -3.905,-6.622 c -0.34,-0.566 -0.736,-0.848 -1.189,-0.848 -0.284,0 -0.566,0.084 -0.849,0.254 -3.112,1.641 -6.395,2.462 -9.847,2.462 -3.622,0 -5.432,-1.048 -5.432,-3.141 0,-1.133 0.522,-1.952 1.57,-2.462 1.047,-0.509 2.984,-0.99 5.815,-1.443 4.923,-0.849 8.799,-2.363 11.629,-4.541 C 3.551,18.237 4.966,15.138 4.966,11.12 4.966,6.197 3.311,2.49 0,0"
             style="fill:#702f8e;fill-opacity:1;fill-rule:nonzero;stroke:none"
             id="path40" />
        </g>
        <g
           id="g42"
           transform="translate(396.7193,106.7165)">
          <path
             d="m 0,0 c 1.98,0.565 4.075,0.849 6.282,0.849 5.715,0 10.299,-1.628 13.752,-4.881 3.451,-3.255 5.178,-7.824 5.178,-13.71 v -25.127 c 0,-1.018 -0.482,-1.528 -1.443,-1.528 h -9.847 c -1.019,0 -1.528,0.51 -1.528,1.528 v 25.552 c 0,4.414 -2.179,6.621 -6.537,6.621 -1.924,0 -3.764,-0.453 -5.517,-1.358 0.565,-1.642 0.849,-3.481 0.849,-5.518 v -25.297 c 0,-1.018 -0.482,-1.528 -1.444,-1.528 h -9.847 c -1.018,0 -1.528,0.51 -1.528,1.528 v 25.552 c 0,4.47 -2.066,6.706 -6.196,6.706 -1.698,0 -3.368,-0.255 -5.009,-0.764 v -31.494 c 0,-1.018 -0.509,-1.528 -1.528,-1.528 h -9.847 c -1.019,0 -1.528,0.51 -1.528,1.528 v 38.54 c 0,0.849 0.395,1.471 1.188,1.867 2.49,1.019 5.192,1.825 8.107,2.419 2.914,0.595 5.73,0.892 8.447,0.892 4.357,0 8.205,-1.189 11.544,-3.565 2.32,1.244 4.47,2.15 6.452,2.716"
             style="fill:#702f8e;fill-opacity:1;fill-rule:nonzero;stroke:none"
             id="path44" />
        </g>
        <g
           id="g46"
           transform="translate(443.0253,72.8461)">
          <path
             d="m 0,0 c 1.216,-0.736 2.871,-1.104 4.966,-1.104 1.81,0 3.735,0.226 5.772,0.68 v 7.47 C 9.04,7.385 7.088,7.555 4.881,7.555 0.41,7.555 -1.825,6.14 -1.825,3.311 -1.825,1.838 -1.218,0.735 0,0 m -4.584,33.489 c 3.027,0.876 6.267,1.315 9.72,1.315 5.997,0 10.596,-1.585 13.794,-4.753 3.196,-3.171 4.796,-7.924 4.796,-14.262 V -7.47 c 0,-0.849 -0.424,-1.416 -1.273,-1.698 -2.491,-0.736 -5.306,-1.33 -8.447,-1.783 -3.141,-0.452 -6.154,-0.679 -9.04,-0.679 -6.282,0 -11.178,1.217 -14.686,3.651 -3.51,2.432 -5.263,6.082 -5.263,10.95 0,4.357 1.613,7.653 4.839,9.89 3.226,2.235 7.78,3.353 13.667,3.353 1.98,0 4.385,-0.17 7.215,-0.51 v 0.849 c 0,2.377 -0.524,4.131 -1.57,5.263 -1.048,1.132 -2.901,1.698 -5.56,1.698 -1.868,0 -3.792,-0.227 -5.773,-0.679 -1.981,-0.454 -3.594,-1.019 -4.838,-1.698 -0.284,-0.17 -0.567,-0.254 -0.849,-0.254 -0.51,0 -0.906,0.254 -1.189,0.763 l -3.48,6.622 c -0.227,0.565 -0.34,0.905 -0.34,1.018 0,0.34 0.17,0.622 0.51,0.849 2.15,1.358 4.739,2.475 7.767,3.354"
             style="fill:#702f8e;fill-opacity:1;fill-rule:nonzero;stroke:none"
             id="path48" />
        </g>
        <g
           id="g50"
           transform="translate(488.3125,79.1278)">
          <path
             d="m 0,0 c 0,-4.189 1.896,-6.282 5.688,-6.282 0.565,0 1.47,0.056 2.716,0.17 h 0.424 c 0.792,0 1.189,-0.424 1.189,-1.273 v -8.319 c 0,-0.963 -0.397,-1.528 -1.189,-1.698 -1.585,-0.283 -3.367,-0.425 -5.348,-0.425 -5.093,0 -9.112,1.372 -12.054,4.117 -2.943,2.745 -4.414,6.777 -4.414,12.097 v 38.115 c 0,0.962 0.51,1.443 1.528,1.443 h 8.829 c 0.961,0 1.47,-0.453 1.527,-1.358 L -0.085,26.4 h 7.64 c 1.019,0 1.528,-0.481 1.528,-1.443 v -8.149 c 0,-0.963 -0.509,-1.443 -1.528,-1.443 l -7.555,0 z"
             style="fill:#702f8e;fill-opacity:1;fill-rule:nonzero;stroke:none"
             id="path52" />
        </g>
        <g
           id="g54"
           transform="translate(506.563,62.3199)">
          <path
             d="m 0,0 c -1.019,0 -1.528,0.509 -1.528,1.528 v 41.171 c 0,0.962 0.509,1.443 1.528,1.443 h 10.017 c 0.961,0 1.443,-0.481 1.443,-1.443 V 1.528 C 11.46,0.509 10.978,0 10.017,0 Z m 10.144,52.291 c -1.33,-1.358 -3.043,-2.037 -5.136,-2.037 -2.037,0 -3.749,0.692 -5.135,2.08 -1.388,1.386 -2.08,3.069 -2.08,5.05 0,2.094 0.679,3.806 2.037,5.136 1.358,1.329 3.084,1.995 5.178,1.995 2.093,0 3.806,-0.666 5.136,-1.995 1.329,-1.33 1.995,-3.042 1.995,-5.136 0,-2.037 -0.666,-3.735 -1.995,-5.093"
             style="fill:#702f8e;fill-opacity:1;fill-rule:nonzero;stroke:none"
             id="path56" />
        </g>
        <g
           id="g58"
           transform="translate(546.2905,61.2163)">
          <path
             d="m 0,0 c -6.339,0 -11.277,1.655 -14.813,4.966 -3.537,3.311 -5.306,7.823 -5.306,13.54 v 9.592 c 0,5.659 1.769,10.13 5.306,13.413 3.536,3.281 8.446,4.923 14.728,4.923 4.924,0 9.563,-1.33 13.922,-3.99 0.452,-0.284 0.679,-0.679 0.679,-1.188 0,-0.284 -0.085,-0.594 -0.255,-0.934 L 9.762,33.531 C 9.423,33.022 9.026,32.767 8.574,32.767 c -0.284,0 -0.595,0.085 -0.934,0.255 -2.434,1.301 -4.811,1.952 -7.131,1.952 -2.321,0 -4.146,-0.609 -5.475,-1.825 -1.33,-1.218 -1.995,-2.901 -1.995,-5.051 v -9.592 c 0,-2.321 0.665,-4.075 1.995,-5.263 1.329,-1.189 3.126,-1.783 5.391,-1.783 2.829,0 5.545,0.82 8.149,2.462 0.339,0.169 0.65,0.254 0.934,0.254 0.509,0 0.904,-0.226 1.188,-0.679 L 15.28,6.706 C 15.505,6.422 15.62,6.112 15.62,5.772 15.62,5.263 15.421,4.894 15.025,4.669 10.611,1.556 5.603,0 0,0"
             style="fill:#702f8e;fill-opacity:1;fill-rule:nonzero;stroke:none"
             id="path60" />
        </g>
      </g>
    </g>
    <text
       xml:space="preserve"
       transform="matrix(1,0,0,-1,147.5918,26.1543)"
       style="font-variant:normal;font-weight:bold;font-stretch:normal;font-size:25.3286px;font-family:'Plus Jakarta Display';-inkscape-font-specification:PlusJakartaDisplay-Bold;writing-mode:lr-tb;fill:#000000;fill-opacity:1;fill-rule:nonzero;stroke:none"
       id="text64"><tspan
         x="0 16.362276 30.19169 36.523842 51.138443 64.132011 68.691162 83.381752 99.186798 109.44488 123.9835 138.5981 143.15724 161.21654 176.16042 186.34251 202.14755 224.84198 238.6714 248.8535 255.18564 270.99069"
         y="0"
         sodipodi:role="line"
         id="tspan62">Sales Force Automation</tspan></text>
    <g
       id="g66">
      <g
         id="g68"
         clip-path="url(#clipPath72)">
        <g
           id="g74"
           transform="translate(61.0522,73.5455)">
          <path
             d="m 0,0 -0.007,0.004 c -1.881,1.059 -4.174,-0.219 -4.436,-2.326 -0.065,-0.536 0.058,-1.048 0.277,-1.537 0.512,-1.151 1.025,-2.304 1.537,-3.454 0.148,-0.336 0.304,-0.669 0.445,-1.005 0.108,-0.256 0.073,-0.336 -0.187,-0.379 -0.792,-0.131 -1.58,-0.278 -2.377,-0.368 -1.96,-0.223 -3.928,-0.358 -5.901,-0.275 -1.697,0.072 -3.385,0.218 -5.036,0.648 -2.423,0.631 -4.556,1.8 -6.346,3.554 -3.562,3.489 -5.795,7.691 -6.691,12.601 -0.32,1.747 -0.448,3.504 -0.347,5.271 0.314,5.555 2.302,10.434 6.036,14.566 3.176,3.512 7.084,5.84 11.68,6.999 1.922,0.486 3.876,0.686 5.856,0.681 3.738,-0.01 7.475,-0.003 11.212,-0.003 7.222,0 14.444,0.002 21.666,-0.002 1.024,-0.001 0.924,0.134 0.883,-0.922 C 28.093,29.664 26.803,25.623 24.342,21.987 20.993,17.038 16.403,13.81 10.616,12.298 9.284,11.949 7.922,11.758 6.551,11.611 7.526,11.439 8.508,11.356 9.472,11.152 15.943,9.791 20.988,6.331 24.603,0.809 c 1.821,-2.781 2.934,-5.841 3.427,-9.132 0.261,-1.732 0.338,-3.472 0.196,-5.211 -0.45,-5.52 -2.554,-10.329 -6.368,-14.352 -3.485,-3.673 -7.744,-5.956 -12.715,-6.906 -1.354,-0.26 -2.725,-0.369 -4.103,-0.369 h -33.427 c -0.751,0 -0.723,-0.031 -0.699,0.716 0.137,4.114 1.183,7.972 3.36,11.478 2.601,4.191 6.357,6.836 11.116,8.075 1.312,0.343 2.654,0.498 4.004,0.594 1.264,0.093 2.521,0.078 3.779,-0.029 1.467,-0.125 2.902,-0.409 4.306,-0.849 0.087,-0.027 0.171,-0.068 0.257,-0.098 0.131,-0.048 0.173,-0.146 0.143,-0.27 -0.031,-0.133 -0.076,-0.264 -0.118,-0.395 -0.402,-1.242 -0.804,-2.485 -1.205,-3.727 -0.057,-0.173 -0.125,-0.346 -0.17,-0.521 -0.18,-0.72 -0.112,-1.406 0.253,-2.063 0.76,-1.371 2.795,-2.334 4.581,-1.217 l 12.011,9.53 c 1.491,1.183 1.433,3.466 -0.117,4.572 z"
             style="fill:#ffffff;fill-opacity:1;fill-rule:nonzero;stroke:none"
             id="path76" />
        </g>
      </g>
    </g>
  </g>
</svg>
