<?xml version="1.0" encoding="UTF-8" standalone="no"?>
<!-- Created with Inkscape (http://www.inkscape.org/) -->

<svg
   version="1.1"
   id="svg2"
   width="811.87067"
   height="195.57733"
   viewBox="0 0 811.87067 195.57733"
   sodipodi:docname="distomatic_logo.ai"
   xmlns:inkscape="http://www.inkscape.org/namespaces/inkscape"
   xmlns:sodipodi="http://sodipodi.sourceforge.net/DTD/sodipodi-0.dtd"
   xmlns="http://www.w3.org/2000/svg"
   xmlns:svg="http://www.w3.org/2000/svg">
  <defs
     id="defs6">
    <clipPath
       clipPathUnits="userSpaceOnUse"
       id="clipPath16">
      <path
         d="M 0,146.683 H 608.903 V 0 H 0 Z"
         id="path14" />
    </clipPath>
    <clipPath
       clipPathUnits="userSpaceOnUse"
       id="clipPath72">
      <path
         d="M 0,146.683 H 608.903 V 0 H 0 Z"
         id="path70" />
    </clipPath>
  </defs>
  <sodipodi:namedview
     id="namedview4"
     pagecolor="#ffffff"
     bordercolor="#000000"
     borderopacity="0.25"
     inkscape:showpageshadow="2"
     inkscape:pageopacity="0.0"
     inkscape:pagecheckerboard="0"
     inkscape:deskcolor="#d1d1d1" />
  <g
     id="g8"
     inkscape:groupmode="layer"
     inkscape:label="distomatic_logo"
     transform="matrix(1.3333333,0,0,-1.3333333,0,195.57733)">
    <g
       id="g10">
      <g
         id="g12"
         clip-path="url(#clipPath16)">
        <g
           id="g18"
           transform="translate(117.5657,71.8449)">
          <path
             d="m 0,0 c 0,-31.901 -25.861,-57.761 -57.761,-57.761 -31.901,0 -57.762,25.86 -57.762,57.761 0,31.901 25.861,57.761 57.762,57.761 C -25.861,57.761 0,31.901 0,0"
             style="fill:#702f8e;fill-opacity:1;fill-rule:nonzero;stroke:none"
             id="path20" />
        </g>
        <g
           id="g22"
           transform="translate(169.6523,72.7802)">
          <path
             d="m 0,0 c 3.387,0 5.899,0.832 7.535,2.498 1.637,1.664 2.455,4.247 2.455,7.75 v 14.984 c 0,3.559 -0.833,6.186 -2.498,7.88 C 5.826,34.804 3.329,35.652 0,35.652 H -9.042 V 0 Z m -21.357,-13.003 c -1.033,0 -1.55,0.516 -1.55,1.55 v 58.472 c 0,1.034 0.517,1.55 1.55,1.55 h 21.185 c 7.462,0 13.391,-1.894 17.783,-5.683 4.392,-3.789 6.588,-9.904 6.588,-18.343 V 10.851 c 0,-8.44 -2.183,-14.526 -6.545,-18.257 -4.364,-3.732 -10.306,-5.597 -17.826,-5.597 z"
             style="fill:#702f8e;fill-opacity:1;fill-rule:nonzero;stroke:none"
             id="path24" />
        </g>
        <g
           id="g26"
           transform="translate(204.7007,59.7767)">
          <path
             d="m 0,0 c -1.033,0 -1.55,0.517 -1.55,1.55 v 41.766 c 0,0.976 0.517,1.464 1.55,1.464 h 10.162 c 0.975,0 1.464,-0.488 1.464,-1.464 V 1.55 C 11.626,0.517 11.137,0 10.162,0 Z m 10.291,53.048 c -1.35,-1.378 -3.087,-2.067 -5.21,-2.067 -2.067,0 -3.804,0.702 -5.21,2.11 -1.408,1.406 -2.11,3.113 -2.11,5.123 0,2.124 0.689,3.861 2.067,5.211 1.378,1.348 3.128,2.023 5.253,2.023 2.123,0 3.86,-0.675 5.21,-2.023 1.348,-1.35 2.024,-3.087 2.024,-5.211 0,-2.066 -0.676,-3.789 -2.024,-5.166"
             style="fill:#702f8e;fill-opacity:1;fill-rule:nonzero;stroke:none"
             id="path28" />
        </g>
        <g
           id="g30"
           transform="translate(256.4996,62.4463)">
          <path
             d="m 0,0 c -3.359,-2.527 -8.168,-3.789 -14.425,-3.789 -3.1,0 -6.2,0.474 -9.3,1.421 -3.1,0.947 -5.972,2.338 -8.612,4.177 -0.516,0.344 -0.775,0.745 -0.775,1.205 0,0.172 0.115,0.487 0.345,0.947 l 4.047,6.89 c 0.345,0.573 0.746,0.861 1.206,0.861 0.287,0 0.573,-0.116 0.861,-0.345 3.789,-2.583 7.893,-3.875 12.315,-3.875 1.836,0 3.315,0.301 4.435,0.905 1.119,0.602 1.679,1.448 1.679,2.54 0,1.033 -0.532,1.808 -1.593,2.325 -1.063,0.517 -2.598,0.947 -4.608,1.292 -11.367,1.894 -17.051,6.745 -17.051,14.553 0,4.65 1.665,8.181 4.995,10.593 3.329,2.411 7.893,3.616 13.693,3.616 5.109,0 10.19,-1.321 15.242,-3.961 0.517,-0.23 0.775,-0.603 0.775,-1.119 0,-0.288 -0.086,-0.603 -0.258,-0.948 L -0.99,30.571 c -0.345,-0.574 -0.747,-0.861 -1.206,-0.861 -0.288,0 -0.575,0.086 -0.861,0.258 -3.158,1.665 -6.489,2.498 -9.99,2.498 -3.674,0 -5.511,-1.063 -5.511,-3.187 0,-1.149 0.53,-1.98 1.593,-2.497 1.062,-0.517 3.028,-1.005 5.899,-1.464 C -6.071,24.457 -2.139,22.92 0.732,20.711 3.602,18.5 5.038,15.357 5.038,11.281 5.038,6.287 3.359,2.526 0,0"
             style="fill:#702f8e;fill-opacity:1;fill-rule:nonzero;stroke:none"
             id="path32" />
        </g>
        <g
           id="g34"
           transform="translate(281.5152,76.8277)">
          <path
             d="m 0,0 c 0,-4.249 1.923,-6.373 5.77,-6.373 0.573,0 1.492,0.057 2.756,0.173 h 0.43 c 0.803,0 1.206,-0.431 1.206,-1.292 v -8.439 c 0,-0.977 -0.403,-1.551 -1.206,-1.723 -1.608,-0.286 -3.416,-0.431 -5.425,-0.431 -5.167,0 -9.244,1.392 -12.229,4.177 -2.986,2.784 -4.478,6.875 -4.478,12.272 V 37.03 c 0,0.975 0.517,1.464 1.55,1.464 h 8.956 c 0.976,0 1.493,-0.46 1.55,-1.378 l 1.034,-10.334 h 7.75 c 1.034,0 1.55,-0.488 1.55,-1.464 v -8.267 c 0,-0.977 -0.516,-1.464 -1.55,-1.464 l -7.664,0 z"
             style="fill:#702f8e;fill-opacity:1;fill-rule:nonzero;stroke:none"
             id="path36" />
        </g>
        <g
           id="g38"
           transform="translate(310.1913,76.9137)">
          <path
             d="m 0,0 c 0,-2.124 0.603,-3.761 1.809,-4.909 1.205,-1.149 2.956,-1.722 5.253,-1.722 2.295,0 4.047,0.573 5.253,1.722 1.205,1.148 1.808,2.785 1.808,4.909 v 10.334 c 0,2.181 -0.603,3.86 -1.808,5.038 -1.206,1.176 -2.958,1.765 -5.253,1.765 -2.297,0 -4.048,-0.589 -5.253,-1.765 C 0.603,14.194 0,12.515 0,10.334 Z m 27.471,0 c 0,-5.684 -1.823,-10.148 -5.468,-13.391 -3.647,-3.244 -8.627,-4.866 -14.941,-4.866 -6.317,0 -11.311,1.622 -14.985,4.866 -3.674,3.243 -5.511,7.707 -5.511,13.391 v 10.334 c 0,5.74 1.837,10.261 5.511,13.563 3.674,3.301 8.668,4.952 14.985,4.952 6.314,0 11.294,-1.651 14.941,-4.952 3.645,-3.302 5.468,-7.823 5.468,-13.563 z"
             style="fill:#702f8e;fill-opacity:1;fill-rule:nonzero;stroke:none"
             id="path40" />
        </g>
        <g
           id="g42"
           transform="translate(382.0115,104.8154)">
          <path
             d="m 0,0 c 2.009,0.573 4.134,0.861 6.373,0.861 5.798,0 10.448,-1.651 13.951,-4.951 3.501,-3.303 5.253,-7.938 5.253,-13.908 v -25.491 c 0,-1.033 -0.489,-1.55 -1.464,-1.55 h -9.99 c -1.033,0 -1.55,0.517 -1.55,1.55 v 25.922 c 0,4.477 -2.211,6.716 -6.631,6.716 -1.952,0 -3.819,-0.46 -5.597,-1.377 0.573,-1.666 0.861,-3.531 0.861,-5.598 v -25.663 c 0,-1.033 -0.489,-1.55 -1.464,-1.55 h -9.99 c -1.033,0 -1.55,0.517 -1.55,1.55 v 25.922 c 0,4.534 -2.096,6.803 -6.286,6.803 -1.723,0 -3.417,-0.259 -5.081,-0.775 v -31.95 c 0,-1.033 -0.517,-1.55 -1.55,-1.55 h -9.99 c -1.033,0 -1.55,0.517 -1.55,1.55 v 39.097 c 0,0.861 0.401,1.492 1.206,1.895 2.525,1.033 5.266,1.851 8.224,2.454 2.956,0.603 5.813,0.904 8.568,0.904 4.421,0 8.324,-1.205 11.712,-3.617 C -4.191,-1.494 -2.01,-0.574 0,0"
             style="fill:#702f8e;fill-opacity:1;fill-rule:nonzero;stroke:none"
             id="path44" />
        </g>
        <g
           id="g46"
           transform="translate(428.9872,70.4552)">
          <path
             d="m 0,0 c 1.234,-0.747 2.913,-1.12 5.038,-1.12 1.836,0 3.789,0.229 5.855,0.69 V 7.148 C 9.171,7.492 7.191,7.664 4.952,7.664 0.416,7.664 -1.852,6.229 -1.852,3.359 -1.852,1.865 -1.235,0.745 0,0 m -4.65,33.973 c 3.07,0.889 6.357,1.334 9.86,1.334 6.084,0 10.75,-1.607 13.994,-4.822 3.243,-3.216 4.865,-8.038 4.865,-14.468 V -7.578 c 0,-0.861 -0.43,-1.436 -1.291,-1.723 -2.527,-0.746 -5.383,-1.349 -8.569,-1.808 -3.186,-0.459 -6.243,-0.689 -9.171,-0.689 -6.373,0 -11.339,1.234 -14.898,3.703 -3.561,2.468 -5.34,6.171 -5.34,11.109 0,4.42 1.637,7.764 4.909,10.033 3.273,2.267 7.893,3.401 13.865,3.401 2.009,0 4.448,-0.172 7.319,-0.517 v 0.862 c 0,2.411 -0.531,4.19 -1.593,5.339 -1.062,1.148 -2.942,1.722 -5.64,1.722 -1.895,0 -3.847,-0.23 -5.856,-0.689 -2.01,-0.46 -3.647,-1.033 -4.909,-1.722 -0.288,-0.172 -0.574,-0.258 -0.861,-0.258 -0.517,0 -0.919,0.258 -1.206,0.775 l -3.53,6.717 c -0.23,0.573 -0.345,0.917 -0.345,1.033 0,0.344 0.173,0.631 0.517,0.861 2.181,1.378 4.808,2.511 7.88,3.402"
             style="fill:#702f8e;fill-opacity:1;fill-rule:nonzero;stroke:none"
             id="path48" />
        </g>
        <g
           id="g50"
           transform="translate(474.9294,76.8277)">
          <path
             d="m 0,0 c 0,-4.249 1.923,-6.373 5.77,-6.373 0.573,0 1.492,0.057 2.756,0.173 h 0.43 c 0.804,0 1.206,-0.431 1.206,-1.292 v -8.439 c 0,-0.977 -0.402,-1.551 -1.206,-1.723 -1.608,-0.286 -3.416,-0.431 -5.425,-0.431 -5.167,0 -9.244,1.392 -12.229,4.177 -2.986,2.784 -4.478,6.875 -4.478,12.272 V 37.03 c 0,0.975 0.517,1.464 1.55,1.464 h 8.956 c 0.976,0 1.493,-0.46 1.55,-1.378 l 1.034,-10.334 h 7.75 c 1.034,0 1.55,-0.488 1.55,-1.464 v -8.267 c 0,-0.977 -0.516,-1.464 -1.55,-1.464 l -7.664,0 z"
             style="fill:#702f8e;fill-opacity:1;fill-rule:nonzero;stroke:none"
             id="path52" />
        </g>
        <g
           id="g54"
           transform="translate(493.4439,59.7767)">
          <path
             d="m 0,0 c -1.034,0 -1.55,0.517 -1.55,1.55 v 41.766 c 0,0.976 0.516,1.464 1.55,1.464 h 10.162 c 0.975,0 1.464,-0.488 1.464,-1.464 V 1.55 C 11.626,0.517 11.137,0 10.162,0 Z m 10.291,53.048 c -1.35,-1.378 -3.087,-2.067 -5.21,-2.067 -2.067,0 -3.804,0.702 -5.21,2.11 -1.408,1.406 -2.11,3.113 -2.11,5.123 0,2.124 0.689,3.861 2.067,5.211 1.378,1.348 3.128,2.023 5.253,2.023 2.123,0 3.86,-0.675 5.21,-2.023 1.348,-1.35 2.024,-3.087 2.024,-5.211 0,-2.066 -0.676,-3.789 -2.024,-5.166"
             style="fill:#702f8e;fill-opacity:1;fill-rule:nonzero;stroke:none"
             id="path56" />
        </g>
        <g
           id="g58"
           transform="translate(533.7459,58.6572)">
          <path
             d="m 0,0 c -6.43,0 -11.44,1.679 -15.027,5.038 -3.589,3.358 -5.383,7.936 -5.383,13.735 v 9.731 c 0,5.741 1.794,10.276 5.383,13.607 3.587,3.329 8.568,4.994 14.941,4.994 4.995,0 9.701,-1.349 14.123,-4.047 0.459,-0.288 0.689,-0.689 0.689,-1.206 0,-0.287 -0.086,-0.602 -0.259,-0.947 L 9.903,34.016 C 9.559,33.499 9.157,33.241 8.698,33.241 c -0.288,0 -0.603,0.086 -0.947,0.258 -2.47,1.32 -4.881,1.981 -7.234,1.981 -2.355,0 -4.206,-0.618 -5.555,-1.852 -1.349,-1.235 -2.023,-2.942 -2.023,-5.124 v -9.731 c 0,-2.354 0.674,-4.133 2.023,-5.339 1.349,-1.206 3.172,-1.808 5.469,-1.808 2.87,0 5.625,0.831 8.267,2.497 0.344,0.172 0.659,0.258 0.947,0.258 0.517,0 0.918,-0.23 1.206,-0.689 l 4.65,-6.889 C 15.73,6.515 15.846,6.2 15.846,5.856 15.846,5.339 15.644,4.965 15.243,4.736 10.765,1.578 5.684,0 0,0"
             style="fill:#702f8e;fill-opacity:1;fill-rule:nonzero;stroke:none"
             id="path60" />
        </g>
      </g>
    </g>
    <text
       xml:space="preserve"
       transform="matrix(1,0,0,-1,146.7471,24.5439)"
       style="font-variant:normal;font-weight:bold;font-stretch:normal;font-size:25.3286px;font-family:'Plus Jakarta Display';-inkscape-font-specification:PlusJakartaDisplay-Bold;writing-mode:lr-tb;fill:#000000;fill-opacity:1;fill-rule:nonzero;stroke:none"
       id="text64"><tspan
         x="0 18.616522 24.948671 37.942242 48.12434 58.382423 64.714577 81.27948 96.223351 106.40545 112.7376 128.54265 143.48653 148.04567 170.8414 184.67082 199.6147 213.44411 229.75574 244.37033 267.06476 281.67935 296.62323 306.80533 311.36447 327.72675 342.3667 355.36026 365.54236 380.15695"
         y="0"
         sodipodi:role="line"
         id="tspan62">Distribution Management System</tspan></text>
    <g
       id="g66">
      <g
         id="g68"
         clip-path="url(#clipPath72)">
        <g
           id="g74"
           transform="translate(28.4568,85.4643)">
          <path
             d="m 0,0 c 0,4.487 0.002,8.972 -0.001,13.459 -0.002,1.935 -0.017,3.87 -0.026,5.805 0,0.176 0.003,0.351 0.011,0.527 0.006,0.127 0.087,0.202 0.206,0.214 0.153,0.014 0.307,0.01 0.461,0.01 10.812,0 21.623,-0.002 32.434,0.002 5.689,0.002 11.072,-1.284 16.077,-3.985 8.186,-4.418 13.77,-11.046 16.607,-19.939 0.683,-2.142 1.093,-4.342 1.304,-6.582 0.176,-1.868 0.208,-3.738 0.061,-5.601 -0.583,-7.401 -3.275,-13.942 -8.132,-19.562 -3.555,-4.116 -7.877,-7.177 -12.92,-9.209 -2.559,-1.03 -5.204,-1.731 -7.94,-2.096 -1.484,-0.199 -2.973,-0.294 -4.468,-0.296 -3.054,-0.004 -6.108,0.002 -9.163,-0.003 -0.974,-10e-4 -1.933,0.097 -2.85,0.438 -3.212,1.194 -5.08,3.506 -5.619,6.876 -0.157,0.98 -0.097,1.978 0.144,2.949 1.279,5.178 3.513,9.882 6.951,13.985 1.731,2.067 3.702,3.875 5.892,5.446 0.106,0.078 0.217,0.148 0.329,0.218 0.067,0.041 0.137,0.016 0.172,-0.041 0.068,-0.112 0.126,-0.231 0.178,-0.351 0.671,-1.553 1.339,-3.107 2.009,-4.661 0.061,-0.14 0.117,-0.284 0.184,-0.422 0.55,-1.142 1.63,-1.725 2.919,-1.58 1.18,0.132 2.113,0.95 2.394,2.139 0.162,0.684 0.28,1.378 0.418,2.068 0.685,3.424 1.37,6.85 2.055,10.276 0.233,1.164 0.473,2.325 0.696,3.49 0.075,0.386 0.118,0.773 0.07,1.177 -0.148,1.225 -1.325,2.482 -2.845,2.428 -0.596,-0.021 -1.179,-0.129 -1.765,-0.208 -2.481,-0.335 -4.959,-0.689 -7.437,-1.038 -2.458,-0.346 -4.916,-0.679 -7.37,-1.043 -2.181,-0.324 -2.947,-2.671 -2.048,-4.235 0.306,-0.532 0.752,-0.909 1.306,-1.164 0.919,-0.421 1.837,-0.843 2.756,-1.264 0.898,-0.411 1.797,-0.821 2.695,-1.236 0.259,-0.12 0.274,-0.183 0.083,-0.367 -0.665,-0.639 -1.324,-1.288 -2.009,-1.906 -2.883,-2.595 -5.972,-4.913 -9.337,-6.852 -1.926,-1.11 -3.915,-2.093 -6.018,-2.819 -2.573,-0.888 -4.859,-0.362 -6.772,1.576 -1.074,1.089 -1.616,2.443 -1.666,3.981 -0.007,0.22 -0.005,0.44 -0.005,0.66 L 0.021,0 Z"
             style="fill:#ffffff;fill-opacity:1;fill-rule:nonzero;stroke:none"
             id="path76" />
        </g>
      </g>
    </g>
  </g>
</svg>
