<?xml version="1.0" encoding="UTF-8" standalone="no"?>
<svg
   xmlns:dc="http://purl.org/dc/elements/1.1/"
   xmlns:cc="http://creativecommons.org/ns#"
   xmlns:rdf="http://www.w3.org/1999/02/22-rdf-syntax-ns#"
   xmlns:svg="http://www.w3.org/2000/svg"
   xmlns="http://www.w3.org/2000/svg"
   viewBox="0 0 226.66667 66.666664"
   height="66.666664"
   width="226.66667"
   xml:space="preserve"
   id="svg2"
   version="1.1"><metadata
     id="metadata8"><rdf:RDF><cc:Work
         rdf:about=""><dc:format>image/svg+xml</dc:format><dc:type
           rdf:resource="http://purl.org/dc/dcmitype/StillImage" /></cc:Work></rdf:RDF></metadata><defs
     id="defs6"><clipPath
       id="clipPath18"
       clipPathUnits="userSpaceOnUse"><path
         id="path16"
         d="M 0,50 H 170 V 0 H 0 Z" /></clipPath></defs><g
     transform="matrix(1.3333333,0,0,-1.3333333,0,66.666667)"
     id="g10"><g
       id="g12"><g
         clip-path="url(#clipPath18)"
         id="g14"><g
           transform="translate(44.1,6.9)"
           id="g20"><path
             id="path22"
             style="fill:#a1258b;fill-opacity:1;fill-rule:evenodd;stroke:none"
             d="M 0,0 V 16.6 L -9.1,7.5 C -9.7,6.9 -9.7,6 -9.1,5.4 l 6.5,-6.5 C -1.6,-2 0,-1.3 0,0" /></g><g
           transform="translate(44.1,41.6)"
           id="g24"><path
             id="path26"
             style="fill:#702f8e;fill-opacity:1;fill-rule:evenodd;stroke:none"
             d="m 0,0 v -13.3 c 0,-1.2 -0.5,-2.4 -1.4,-3.3 l -10,-10.2 -8.7,-8.6 c -1.2,-1.2 -3.2,-1.2 -4.4,0 l -5.7,5.8 -0.7,0.7 -2.1,2.3 -7.7,-7.7 c -0.9,-1 -2.6,-0.3 -2.6,1.1 v 13.8 c 0,0.8 0.3,1.6 0.9,2.2 l 9.6,9.6 c 0.6,0.6 1.5,0.6 2.1,0 l 3.4,-3.4 4.2,-4.2 2.3,-2.3 L -2.4,1 C -1.6,2 0,1.3 0,0" /></g><g
           transform="translate(13.9,11.9)"
           id="g28"><path
             id="path30"
             style="fill:#702f8e;fill-opacity:1;fill-rule:evenodd;stroke:none"
             d="M 0,0 -0.4,0.4 C -0.5,0.5 -0.6,0.6 -0.7,0.7 Z" /></g><g
           transform="translate(0.9,43)"
           id="g32"><path
             id="path34"
             style="fill:#a1258b;fill-opacity:1;fill-rule:evenodd;stroke:none"
             d="m 0,0 v -16.6 l 9.1,9.1 c 0.6,0.6 0.6,1.5 0,2.1 L 2.6,1.1 C 1.6,2 0,1.3 0,0" /></g><g
           transform="translate(55.3,15.6)"
           id="g36"><path
             id="path38"
             style="fill:#000000;fill-opacity:1;fill-rule:nonzero;stroke:none"
             d="M 0,0 H 3 V -1 H 2 V -5.3 H 1 V -1 H 0 Z M 9.1,0 H 12 V -1 H 10.1 V -2 H 12 V -3 H 10.1 V -4.4 H 12 v -1 H 9.1 Z m 14.1,-1 -0.7,-0.7 c -0.5,0.5 -1,0.8 -1.6,0.8 -0.5,0 -0.9,-0.2 -1.3,-0.5 -0.3,-0.3 -0.5,-0.8 -0.5,-1.3 0,-0.4 0.1,-0.7 0.2,-0.9 0.2,-0.3 0.4,-0.5 0.7,-0.6 0.3,-0.2 0.6,-0.2 0.9,-0.2 0.3,0 0.6,0.1 0.8,0.2 0.2,0.1 0.5,0.3 0.8,0.6 l 0.7,-0.7 c -0.4,-0.4 -0.8,-0.6 -1.1,-0.8 -0.3,-0.1 -0.7,-0.2 -1.2,-0.2 -0.8,0 -1.5,0.3 -2,0.8 -0.5,0.5 -0.8,1.2 -0.8,2 0,0.5 0.1,1 0.4,1.4 0.2,0.4 0.6,0.7 1,1 0.4,0.2 0.9,0.4 1.4,0.4 0.4,0 0.9,-0.1 1.3,-0.3 0.4,-0.4 0.7,-0.6 1,-1 m 6.3,1 h 1 v -2 h 1.8 v 2 h 1 v -5.2 h -1 v 2.3 h -1.8 v -2.3 h -1 z m 10.4,0 h 1 l 2.3,-3.5 V 0 h 1 v -5.2 h -1 l -2.3,3.5 v -3.5 h -1 z m 13.3,0.1 c 0.7,0 1.4,-0.3 1.9,-0.8 0.5,-0.5 0.8,-1.2 0.8,-2 0,-0.8 -0.3,-1.4 -0.8,-2 -0.5,-0.5 -1.2,-0.8 -1.9,-0.8 -0.8,0 -1.5,0.3 -2,0.8 -0.5,0.6 -0.8,1.2 -0.8,2 0,0.5 0.1,1 0.4,1.4 0.2,0.4 0.6,0.8 1,1 0.4,0.3 0.9,0.4 1.4,0.4 m 0,-1 c -0.5,0 -0.9,-0.2 -1.2,-0.5 -0.3,-0.3 -0.5,-0.8 -0.5,-1.3 0,-0.6 0.2,-1 0.6,-1.4 0.3,-0.3 0.7,-0.4 1.1,-0.4 0.5,0 0.9,0.2 1.2,0.5 0.3,0.3 0.5,0.8 0.5,1.3 0,0.5 -0.2,0.9 -0.5,1.3 -0.3,0.3 -0.7,0.5 -1.2,0.5 M 62.3,0 h 1 v -4.3 h 1.5 v -1 h -2.5 z m 11.2,0.1 c 0.7,0 1.4,-0.3 1.9,-0.8 0.5,-0.5 0.8,-1.2 0.8,-2 0,-0.8 -0.3,-1.4 -0.8,-2 -0.5,-0.5 -1.2,-0.8 -1.9,-0.8 -0.8,0 -1.5,0.3 -2,0.8 -0.5,0.6 -0.8,1.2 -0.8,2 0,0.5 0.1,1 0.4,1.4 0.2,0.4 0.6,0.8 1,1 0.4,0.3 0.9,0.4 1.4,0.4 m 0,-1 c -0.5,0 -0.9,-0.2 -1.2,-0.5 -0.3,-0.3 -0.5,-0.8 -0.5,-1.3 0,-0.6 0.2,-1 0.6,-1.4 0.3,-0.3 0.7,-0.4 1.1,-0.4 0.5,0 0.9,0.2 1.2,0.5 0.3,0.3 0.5,0.8 0.5,1.3 0,0.5 -0.2,0.9 -0.5,1.3 -0.4,0.3 -0.8,0.5 -1.2,0.5 m 14,0 -0.7,-0.7 c -0.4,0.5 -1,0.7 -1.6,0.7 -0.5,0 -1,-0.2 -1.3,-0.5 -0.4,-0.3 -0.5,-0.8 -0.5,-1.3 0,-0.5 0.2,-0.9 0.5,-1.3 0.4,-0.4 0.8,-0.5 1.4,-0.5 0.3,0 0.6,0.1 0.9,0.2 0.2,0.1 0.4,0.4 0.6,0.7 h -1.5 v 0.9 H 88 v -0.2 c 0,-0.5 -0.1,-0.9 -0.4,-1.3 -0.2,-0.4 -0.6,-0.7 -0.9,-1 -0.4,-0.2 -0.8,-0.3 -1.3,-0.3 -0.6,0 -1,0.1 -1.5,0.4 -0.4,0.2 -0.8,0.6 -1,1 -0.3,0.4 -0.4,0.9 -0.4,1.4 0,0.7 0.2,1.3 0.7,1.8 0.6,0.6 1.3,0.9 2.1,0.9 0.5,0 0.9,-0.1 1.3,-0.3 0.2,0 0.6,-0.3 0.9,-0.6 M 94.1,0 h 1 v -5.2 h -1 z m 7.6,0 h 2.9 v -1 h -1.9 v -1 h 1.9 v -1 h -1.9 v -1.4 h 1.9 v -1 h -2.9 z m 12,-0.8 -0.7,-0.7 c -0.3,0.4 -0.5,0.5 -0.8,0.5 -0.1,0 -0.2,0 -0.3,-0.1 -0.1,-0.1 -0.1,-0.2 -0.1,-0.2 0,-0.1 0,-0.2 0.1,-0.3 0.1,-0.1 0.3,-0.3 0.7,-0.7 0.4,-0.3 0.6,-0.5 0.7,-0.6 0.2,-0.2 0.3,-0.4 0.4,-0.6 0.1,-0.2 0.1,-0.4 0.1,-0.6 0,-0.4 -0.2,-0.8 -0.5,-1.1 -0.3,-0.3 -0.7,-0.4 -1.2,-0.4 -0.4,0 -0.7,0.1 -1,0.3 -0.3,0.2 -0.5,0.5 -0.7,0.9 l 0.9,0.5 c 0.3,-0.5 0.6,-0.7 0.9,-0.7 0.2,0 0.3,0.1 0.4,0.2 0.1,0.1 0.2,0.2 0.2,0.3 0,0.1 0,0.2 -0.1,0.4 -0.1,0.1 -0.3,0.3 -0.6,0.6 -0.6,0.5 -1,0.8 -1.1,1.1 -0.2,0.3 -0.3,0.5 -0.3,0.8 0,0.4 0.1,0.7 0.4,0.9 0.3,0.3 0.6,0.4 1,0.4 0.3,0 0.5,-0.1 0.8,-0.2 0.3,-0.1 0.5,-0.3 0.8,-0.7" /></g><g
           transform="translate(130.5,36.8)"
           id="g40"><path
             id="path42"
             style="fill:#702f8e;fill-opacity:1;fill-rule:nonzero;stroke:none"
             d="m 0,0 c 0,1.5 -0.9,2.8 -2.5,2.8 h -1.8 v -17 c 0,-1.5 0.9,-2.8 2.5,-2.8 H 0 Z" /></g><g
           transform="translate(122.2,30.4)"
           id="g44"><path
             id="path46"
             style="fill:#702f8e;fill-opacity:1;fill-rule:nonzero;stroke:none"
             d="m 0,0 v -8 c -0.5,-0.5 -1.1,-1 -1.7,-1.3 -0.6,-0.3 -1.2,-0.6 -1.9,-0.8 -0.6,-0.2 -1.3,-0.3 -2,-0.4 -0.7,-0.1 -1.4,-0.1 -2.1,-0.1 -0.9,0 -1.8,0.1 -2.7,0.4 -0.9,0.2 -1.7,0.6 -2.4,1 -0.7,0.4 -1.4,1 -2,1.6 -0.6,0.6 -1.1,1.3 -1.6,2 -0.4,0.7 -0.8,1.5 -1,2.4 -0.2,0.9 -0.4,1.7 -0.4,2.7 0,0.9 0.1,1.8 0.4,2.7 0.2,0.9 0.6,1.7 1,2.4 0.4,0.7 1,1.4 1.6,2 0.6,0.6 1.3,1.1 2,1.6 0.7,0.4 1.6,0.8 2.4,1 0.9,0.2 1.8,0.4 2.7,0.4 0.7,0 1.5,-0.1 2.2,-0.3 0.7,-0.2 1.4,-0.4 2.1,-0.8 0.7,-0.3 1.3,-0.7 2,-1.2 0.6,-0.5 1.2,-1 1.8,-1.6 -1.2,-1.2 -2.8,-3 -4.5,-1.6 -1,0.8 -2.2,1.2 -3.6,1.2 -3.2,0 -5.6,-2.6 -5.6,-5.6 0,-3.2 2.6,-5.6 5.6,-5.6 1.2,0 2.2,0.3 3.2,0.9 v 0.6 1.8 c 0,1.6 1,3 2.6,3 l 1.9,0 z" /></g><g
           transform="translate(83.8,19.8)"
           id="g48"><path
             id="path50"
             style="fill:#702f8e;fill-opacity:1;fill-rule:nonzero;stroke:none"
             d="m 0,0 h -2.8 c -1,0 -2.2,0.7 -2.7,1.7 l -4.2,9.8 c -0.2,0.4 -0.3,0.9 -0.4,1.3 0,-0.5 -0.2,-0.9 -0.4,-1.3 L -12.3,7.4 -9,0.1 h -2.8 c -1,0 -2.2,0.7 -2.7,1.7 l -4.3,9.8 c -0.2,0.4 -0.3,0.9 -0.4,1.3 0,-0.5 -0.2,-0.9 -0.4,-1.3 l -4.3,-9.8 c -0.4,-1 -1.5,-1.7 -2.6,-1.7 h -2.8 l 8.4,18.5 c 0.7,1.7 2.9,1.7 3.7,0 l 2.6,-5.9 2.6,5.9 c 0.7,1.7 2.9,1.7 3.7,0 z" /></g><g
           transform="translate(96.6,38.4)"
           id="g52"><path
             id="path54"
             style="fill:#702f8e;fill-opacity:1;fill-rule:nonzero;stroke:none"
             d="m 0,0 c -0.8,1.7 -3,1.6 -3.7,0 l -8.1,-18.6 H -9 c 1.1,0 2.2,0.6 2.6,1.7 l 4.3,9.8 c 0.2,0.4 0.3,0.9 0.4,1.3 0.1,-0.5 0.2,-0.9 0.4,-1.3 L 3,-16.9 c 0.4,-1 1.6,-1.7 2.6,-1.7 h 2.8 z" /></g><g
           transform="translate(160.9,38.4)"
           id="g56"><path
             id="path58"
             style="fill:#702f8e;fill-opacity:1;fill-rule:nonzero;stroke:none"
             d="m 0,0 c -0.8,1.7 -3,1.6 -3.7,0 l -8.1,-18.6 H -9 c 1.1,0 2.2,0.6 2.6,1.7 l 4.3,9.8 c 0.2,0.4 0.3,0.9 0.4,1.3 0.1,-0.5 0.2,-0.9 0.4,-1.3 L 3,-16.9 c 0.4,-1 1.6,-1.7 2.6,-1.7 h 2.8 z" /></g><g
           transform="translate(144.4,21)"
           id="g60"><path
             id="path62"
             style="fill:#702f8e;fill-opacity:1;fill-rule:nonzero;stroke:none"
             d="m 0,0 c -0.8,-1.7 -3,-1.6 -3.7,0 l -8.1,18.6 H -9 c 1.1,0 2.2,-0.6 2.6,-1.7 l 4.3,-9.8 c 0.2,-0.4 0.3,-0.9 0.4,-1.3 0.1,0.5 0.2,0.9 0.4,1.3 L 3,16.9 c 0.4,1 1.6,1.7 2.6,1.7 h 2.8 z" /></g></g></g></g></svg>