<?xml version="1.0" encoding="UTF-8" standalone="no"?>
<svg
   xmlns:dc="http://purl.org/dc/elements/1.1/"
   xmlns:cc="http://creativecommons.org/ns#"
   xmlns:rdf="http://www.w3.org/1999/02/22-rdf-syntax-ns#"
   xmlns:svg="http://www.w3.org/2000/svg"
   xmlns="http://www.w3.org/2000/svg"
   viewBox="0 0 228 66.666664"
   height="66.666664"
   width="228"
   xml:space="preserve"
   id="svg2"
   version="1.1"><metadata
     id="metadata8"><rdf:RDF><cc:Work
         rdf:about=""><dc:format>image/svg+xml</dc:format><dc:type
           rdf:resource="http://purl.org/dc/dcmitype/StillImage" /></cc:Work></rdf:RDF></metadata><defs
     id="defs6"><clipPath
       id="clipPath18"
       clipPathUnits="userSpaceOnUse"><path
         id="path16"
         d="M 0,50 H 171 V 0 H 0 Z" /></clipPath></defs><g
     transform="matrix(1.3333333,0,0,-1.3333333,0,66.666667)"
     id="g10"><g
       id="g12"><g
         clip-path="url(#clipPath18)"
         id="g14"><g
           transform="translate(43.7,6.8)"
           id="g20"><path
             id="path22"
             style="fill:#ffffff;fill-opacity:1;fill-rule:evenodd;stroke:none"
             d="M 0,0 V 16.8 L -9.2,7.6 C -9.8,7 -9.8,6.1 -9.2,5.5 l 6.6,-6.6 C -1.6,-2 0,-1.3 0,0" /></g><g
           transform="translate(43.7,41.9)"
           id="g24"><path
             id="path26"
             style="fill:#ffffff;fill-opacity:1;fill-rule:evenodd;stroke:none"
             d="m 0,0 v -13.4 c 0,-1.2 -0.5,-2.4 -1.4,-3.3 l -10.2,-10.4 -8.7,-8.8 c -1.2,-1.2 -3.2,-1.2 -4.4,0 l -5.9,6 -0.7,0.7 -2.1,2.3 -7.8,-7.8 c -0.9,-1 -2.6,-0.3 -2.6,1.1 v 14 c 0,0.8 0.3,1.6 0.9,2.2 l 9.7,9.7 c 0.6,0.6 1.5,0.6 2.1,0 l 3.4,-3.4 4.2,-4.2 2.3,-2.3 L -2.5,1 C -1.6,2 0,1.3 0,0" /></g><g
           transform="translate(13.1,12)"
           id="g28"><path
             id="path30"
             style="fill:#ffffff;fill-opacity:1;fill-rule:evenodd;stroke:none"
             d="M 0,0 -0.4,0.4 C -0.5,0.5 -0.6,0.6 -0.7,0.7 Z" /></g><g
           transform="translate(0,43.3)"
           id="g32"><path
             id="path34"
             style="fill:#ffffff;fill-opacity:1;fill-rule:evenodd;stroke:none"
             d="m 0,0 v -16.8 l 9.2,9.2 c 0.6,0.6 0.6,1.5 0,2.1 L 2.6,1.1 C 1.6,2 0,1.4 0,0" /></g><g
           transform="translate(55,15.6)"
           id="g36"><path
             id="path38"
             style="fill:#ffffff;fill-opacity:1;fill-rule:nonzero;stroke:none"
             d="M 0,0 H 3 V -1 H 2 V -5.3 H 1 V -1 H 0 Z m 9.2,0 h 2.9 v -1 h -1.9 v -1 h 1.9 v -1 h -1.9 v -1.4 h 1.9 v -1 H 9.2 Z m 14.2,-1 -0.7,-0.6 c -0.5,0.5 -1,0.8 -1.6,0.8 -0.5,0 -0.9,-0.2 -1.3,-0.5 -0.3,-0.3 -0.5,-0.8 -0.5,-1.3 0,-0.4 0.1,-0.7 0.2,-0.9 0.2,-0.3 0.4,-0.5 0.7,-0.6 0.3,-0.2 0.6,-0.2 0.9,-0.2 0.3,0 0.6,0.1 0.8,0.2 0.2,0.1 0.5,0.3 0.8,0.6 l 0.7,-0.7 C 23,-4.6 22.6,-4.8 22.3,-5 22,-5.1 21.6,-5.2 21.1,-5.2 c -0.8,0 -1.5,0.3 -2,0.8 -0.5,0.5 -0.8,1.2 -0.8,2 0,0.5 0.1,1 0.4,1.4 0.2,0.4 0.6,0.7 1,1 0.4,0.2 0.9,0.4 1.4,0.4 0.4,0 0.9,-0.1 1.3,-0.3 0.4,-0.5 0.7,-0.7 1,-1.1 m 6.4,1 h 1 v -2 h 1.8 v 2 h 1 v -5.3 h -1 V -3 h -1.8 v -2.3 h -1 z m 10.5,0 h 1 l 2.3,-3.5 V 0 h 1 v -5.3 h -1 l -2.3,3.5 v -3.5 h -1 z m 13.5,0.1 c 0.7,0 1.4,-0.3 1.9,-0.8 0.5,-0.5 0.8,-1.2 0.8,-2 0,-0.8 -0.3,-1.4 -0.8,-2 -0.5,-0.5 -1.2,-0.8 -1.9,-0.8 -0.8,0 -1.5,0.3 -2,0.8 -0.5,0.6 -0.8,1.2 -0.8,2 0,0.5 0.1,1 0.4,1.4 0.2,0.4 0.6,0.8 1,1 0.4,0.3 0.9,0.4 1.4,0.4 m 0,-1 c -0.5,0 -0.9,-0.2 -1.2,-0.5 -0.3,-0.3 -0.5,-0.8 -0.5,-1.3 0,-0.6 0.2,-1 0.6,-1.4 0.3,-0.3 0.7,-0.4 1.1,-0.4 0.5,0 0.9,0.2 1.2,0.5 0.3,0.3 0.5,0.8 0.5,1.3 0,0.5 -0.2,0.9 -0.5,1.3 -0.3,0.3 -0.7,0.5 -1.2,0.5 M 63,0 h 1 v -4.3 h 1.5 v -1 H 63 Z m 11.3,0.1 c 0.7,0 1.4,-0.3 1.9,-0.8 0.5,-0.5 0.8,-1.2 0.8,-2 0,-0.8 -0.3,-1.4 -0.8,-2 -0.5,-0.5 -1.2,-0.8 -1.9,-0.8 -0.8,0 -1.5,0.3 -2,0.8 -0.5,0.6 -0.8,1.2 -0.8,2 0,0.5 0.1,1 0.4,1.4 0.2,0.4 0.6,0.8 1,1 0.4,0.3 0.9,0.4 1.4,0.4 m 0,-1 c -0.5,0 -0.9,-0.2 -1.2,-0.5 -0.3,-0.3 -0.5,-0.8 -0.5,-1.3 0,-0.6 0.2,-1 0.6,-1.4 0.3,-0.3 0.7,-0.4 1.1,-0.4 0.5,0 0.9,0.2 1.2,0.5 0.3,0.3 0.5,0.8 0.5,1.3 0,0.5 -0.2,0.9 -0.5,1.3 -0.4,0.3 -0.8,0.5 -1.2,0.5 m 14.1,0 -0.7,-0.7 c -0.4,0.5 -1,0.7 -1.6,0.7 -0.5,0 -1,-0.2 -1.3,-0.5 -0.4,-0.3 -0.5,-0.8 -0.5,-1.3 0,-0.5 0.2,-0.9 0.5,-1.3 0.4,-0.4 0.8,-0.5 1.4,-0.5 0.3,0 0.6,0.1 0.9,0.2 0.2,0.1 0.4,0.4 0.6,0.7 h -1.5 v 0.9 h 2.7 v -0.2 c 0,-0.5 -0.1,-0.9 -0.4,-1.3 -0.2,-0.4 -0.6,-0.7 -0.9,-1 -0.4,-0.2 -0.8,-0.3 -1.3,-0.3 -0.6,0 -1,0.1 -1.5,0.4 -0.4,0.2 -0.8,0.6 -1,1 -0.3,0.4 -0.4,0.9 -0.4,1.4 0,0.7 0.2,1.3 0.7,1.8 0.6,0.6 1.3,0.9 2.1,0.9 0.5,0 0.9,-0.1 1.3,-0.3 0.2,0 0.6,-0.3 0.9,-0.6 M 95.1,0 h 1 v -5.3 h -1 z m 7.7,0 h 2.9 v -1 h -1.9 v -1 h 1.9 v -1 h -1.9 v -1.4 h 1.9 v -1 h -2.9 z m 12.1,-0.8 -0.7,-0.7 c -0.3,0.4 -0.5,0.5 -0.8,0.5 -0.1,0 -0.2,0 -0.3,-0.1 -0.1,-0.1 -0.1,-0.2 -0.1,-0.2 0,-0.1 0,-0.2 0.1,-0.3 0.1,-0.1 0.3,-0.3 0.7,-0.7 0.4,-0.3 0.6,-0.5 0.7,-0.6 0.2,-0.2 0.3,-0.4 0.4,-0.6 0.1,-0.2 0.1,-0.4 0.1,-0.6 0,-0.4 -0.2,-0.8 -0.5,-1.1 -0.3,-0.3 -0.7,-0.4 -1.2,-0.4 -0.4,0 -0.7,0.1 -1,0.3 -0.3,0.2 -0.5,0.5 -0.7,0.9 l 0.9,0.5 c 0.3,-0.5 0.6,-0.7 0.9,-0.7 0.2,0 0.3,0.1 0.4,0.2 0.1,0.1 0.2,0.2 0.2,0.3 0,0.1 0,0.2 -0.1,0.4 -0.1,0.1 -0.3,0.3 -0.6,0.6 -0.6,0.5 -1,0.8 -1.1,1.1 -0.2,0.3 -0.3,0.5 -0.3,0.8 0,0.4 0.1,0.7 0.4,0.9 0.3,0.3 0.6,0.4 1,0.4 0.3,0 0.5,-0.1 0.8,-0.2 0.3,-0.1 0.5,-0.3 0.8,-0.7" /></g><g
           transform="translate(131,37)"
           id="g40"><path
             id="path42"
             style="fill:#ffffff;fill-opacity:1;fill-rule:nonzero;stroke:none"
             d="m 0,0 c 0,1.5 -0.9,2.8 -2.5,2.8 h -1.8 v -17.2 c 0,-1.5 0.9,-2.8 2.5,-2.8 H 0 Z" /></g><g
           transform="translate(122.6,30.6)"
           id="g44"><path
             id="path46"
             style="fill:#ffffff;fill-opacity:1;fill-rule:nonzero;stroke:none"
             d="m 0,0 v -8.1 c -0.5,-0.5 -1.1,-1 -1.7,-1.3 -0.6,-0.3 -1.2,-0.6 -1.9,-0.8 -0.6,-0.2 -1.3,-0.3 -2,-0.4 -0.7,-0.1 -1.4,-0.1 -2.1,-0.1 -0.9,0 -1.8,0.1 -2.7,0.4 -0.9,0.2 -1.7,0.6 -2.4,1 -0.7,0.4 -1.4,1 -2,1.6 -0.6,0.6 -1.1,1.3 -1.6,2 -0.4,0.7 -0.8,1.5 -1,2.4 -0.2,0.9 -0.4,1.7 -0.4,2.7 0,0.9 0.1,1.8 0.4,2.7 0.2,0.9 0.6,1.7 1,2.4 0.4,0.7 1,1.4 1.6,2 0.6,0.6 1.3,1.1 2,1.6 0.7,0.4 1.6,0.8 2.4,1 0.9,0.2 1.8,0.4 2.7,0.4 0.7,0 1.5,-0.1 2.2,-0.3 0.7,-0.2 1.4,-0.4 2.1,-0.8 0.7,-0.3 1.3,-0.7 2,-1.2 0.6,-0.5 1.2,-1 1.8,-1.6 -1.2,-1.2 -2.8,-3 -4.5,-1.6 -1,0.8 -2.2,1.2 -3.6,1.2 -3.2,0 -5.7,-2.6 -5.7,-5.7 0,-3.2 2.6,-5.7 5.7,-5.7 1.2,0 2.2,0.3 3.2,0.9 v 0.8 1.8 c 0,1.6 1,3 2.6,3 l 1.9,0 z" /></g><g
           transform="translate(83.8,19.8)"
           id="g48"><path
             id="path50"
             style="fill:#ffffff;fill-opacity:1;fill-rule:nonzero;stroke:none"
             d="m 0,0 h -2.8 c -1,0 -2.2,0.7 -2.7,1.7 l -4.2,9.9 c -0.2,0.4 -0.3,0.9 -0.4,1.3 0,-0.5 -0.2,-0.9 -0.4,-1.3 L -12.3,7.5 -9,0.1 h -2.8 c -1,0 -2.2,0.7 -2.7,1.7 l -4.3,9.9 c -0.2,0.4 -0.3,0.9 -0.4,1.3 0,-0.5 -0.2,-0.9 -0.4,-1.3 l -4.3,-9.9 c -0.4,-1 -1.5,-1.7 -2.6,-1.7 h -2.8 l 8.5,18.7 c 0.7,1.7 2.9,1.7 3.7,0 l 2.6,-6 2.6,6 c 0.7,1.7 2.9,1.7 3.7,0 z" /></g><g
           transform="translate(96.7,38.6)"
           id="g52"><path
             id="path54"
             style="fill:#ffffff;fill-opacity:1;fill-rule:nonzero;stroke:none"
             d="m 0,0 c -0.8,1.7 -3,1.6 -3.7,0 l -8.2,-18.8 h 2.8 c 1.1,0 2.2,0.6 2.6,1.7 l 4.3,9.9 c 0.2,0.4 0.3,0.9 0.4,1.3 0.1,-0.5 0.2,-0.9 0.4,-1.3 l 4.3,-9.9 c 0.4,-1 1.6,-1.7 2.6,-1.7 h 2.8 z" /></g><g
           transform="translate(161.7,38.6)"
           id="g56"><path
             id="path58"
             style="fill:#ffffff;fill-opacity:1;fill-rule:nonzero;stroke:none"
             d="m 0,0 c -0.8,1.7 -3,1.6 -3.7,0 l -8.2,-18.8 h 2.8 c 1.1,0 2.2,0.6 2.6,1.7 l 4.3,9.9 c 0.2,0.4 0.3,0.9 0.4,1.3 0.1,-0.5 0.2,-0.9 0.4,-1.3 l 4.3,-9.9 c 0.4,-1 1.6,-1.7 2.6,-1.7 h 2.8 z" /></g><g
           transform="translate(145.1,21.1)"
           id="g60"><path
             id="path62"
             style="fill:#ffffff;fill-opacity:1;fill-rule:nonzero;stroke:none"
             d="m 0,0 c -0.8,-1.7 -3,-1.6 -3.7,0 l -8.2,18.8 h 2.8 c 1.1,0 2.2,-0.6 2.6,-1.7 l 4.3,-9.9 c 0.2,-0.4 0.3,-0.9 0.4,-1.3 0.1,0.5 0.2,0.9 0.4,1.3 l 4.3,9.9 c 0.4,1 1.6,1.7 2.6,1.7 h 2.8 z" /></g></g></g></g></svg>